HIERARCHY
ROOT Pelvis
{
	OFFSET 0.000000 0.000000 0.000000
	CHANNELS 6 Xposition Yposition Zposition Xrotation Yrotation Zrotation
	JOINT LeftUpLeg_virtual
	{
		OFFSET 0.000000 0.000000 0.000000
		CHANNELS 3 Xrotation Yrotation Zrotation
		JOINT LeftUpLeg
		{
			OFFSET 18.735201 -5.666702 -4.541200
			CHANNELS 3 Xrotation Yrotation Zrotation
			JOINT LeftLeg
			{
				OFFSET -0.021200 -31.938179 0.493100
				CHANNELS 3 Xrotation Yrotation Zrotation
				JOINT LeftFoot
				{
					OFFSET 0.021200 -31.938179 -4.336299
					CHANNELS 3 Xrotation Yrotation Zrotation
					JOINT LeftToeBase
					{
						OFFSET 0.943001 -26.722000 15.023500
						CHANNELS 3 Xrotation Yrotation Zrotation
						End Site
						{
							OFFSET 0 0 0
						}
					}
				}
			}
		}
	}
	JOINT RightUpLeg_virtual
	{
		OFFSET 0.000000 0.000000 0.000000
		CHANNELS 3 Xrotation Yrotation Zrotation
		JOINT RightUpLeg
		{
			OFFSET -18.735201 -5.666702 -4.541200
			CHANNELS 3 Xrotation Yrotation Zrotation
			JOINT RightLeg
			{
				OFFSET 0.018946 -31.938133 0.493100
				CHANNELS 3 Xrotation Yrotation Zrotation
				JOINT RightFoot
				{
					OFFSET -0.018946 -31.938126 -4.336299
					CHANNELS 3 Xrotation Yrotation Zrotation
					JOINT RightToeBase
					{
						OFFSET -0.943001 -26.722004 15.023500
						CHANNELS 3 Xrotation Yrotation Zrotation
						End Site
						{
							OFFSET 0 0 0
						}
					}
				}
			}
		}
	}
	JOINT Hips_virtual
	{
		OFFSET 0.000000 0.000000 0.000000
		CHANNELS 3 Xrotation Yrotation Zrotation
		JOINT Hips
		{
			OFFSET -0.000000 -0.000000 -0.000000
			CHANNELS 3 Xrotation Yrotation Zrotation
			JOINT Spine
			{
				OFFSET 0.000000 10.199997 -0.299500
				CHANNELS 3 Xrotation Yrotation Zrotation
				JOINT Spine1
				{
					OFFSET 0.000000 11.900002 -1.516600
					CHANNELS 3 Xrotation Yrotation Zrotation
					JOINT Spine2
					{
						OFFSET 0.000000 13.600006 -2.842500
						CHANNELS 3 Xrotation Yrotation Zrotation
						JOINT Neck_virtual
						{
							OFFSET 0.000000 0.000000 0.000000
							CHANNELS 3 Xrotation Yrotation Zrotation
							JOINT Neck
							{
								OFFSET 0.000000 9.624100 -2.890100
								CHANNELS 3 Xrotation Yrotation Zrotation
								JOINT Head
								{
									OFFSET 0.000000 14.068802 -1.351900
									CHANNELS 3 Xrotation Yrotation Zrotation
									End Site
									{
										OFFSET 0 0 0
									}
								}
							}
						}
						JOINT LeftShoulder_virtual
						{
							OFFSET 0.000000 0.000000 0.000000
							CHANNELS 3 Xrotation Yrotation Zrotation
							JOINT LeftShoulder
							{
								OFFSET 15.263000 10.923401 -0.547700
								CHANNELS 3 Xrotation Yrotation Zrotation
								JOINT LeftArm
								{
									OFFSET 25.438599 -2.830597 -13.032500
									CHANNELS 3 Xrotation Yrotation Zrotation
									JOINT LeftForeArm
									{
										OFFSET 29.960503 0.000000 0.000000
										CHANNELS 3 Xrotation Yrotation Zrotation
										JOINT LeftHand
										{
											OFFSET 27.849251 0.000000 0.000000
											CHANNELS 3 Xrotation Yrotation Zrotation
											End Site
											{
												OFFSET 0 0 0
											}
										}
									}
								}
							}
						}
						JOINT RightShoulder_virtual
						{
							OFFSET 0.000000 0.000000 0.000000
							CHANNELS 3 Xrotation Yrotation Zrotation
							JOINT RightShoulder
							{
								OFFSET -15.263000 10.923401 -0.547700
								CHANNELS 3 Xrotation Yrotation Zrotation
								JOINT RightArm
								{
									OFFSET -25.438599 -2.830597 -13.032500
									CHANNELS 3 Xrotation Yrotation Zrotation
									JOINT RightForeArm
									{
										OFFSET -29.960503 0.000000 0.000000
										CHANNELS 3 Xrotation Yrotation Zrotation
										JOINT RightHand
										{
											OFFSET -27.849251 0.000000 0.000000
											CHANNELS 3 Xrotation Yrotation Zrotation
											End Site
											{
												OFFSET 0 0 0
											}
										}
									}
								}
							}
						}
					}
				}
			}
		}
	}
}
MOTION
Frames: 5
Frame Time: 0.03333333
-1.511954 89.971413 2.761398 0.000000 0.000000 0.000000 1.366856 -28.140183 1.095312 -31.011094 22.249585 14.846658 33.073214 8.111740 11.468548 -1.675673 4.168373 -16.021756 0.000000 0.000000 0.000000 0.715051 -26.885605 0.554230 -20.604524 -16.816868 -10.009451 32.575672 -0.904776 -7.734259 -13.789094 -2.640220 14.110083 0.000000 0.000000 0.000000 1.012212 -27.440259 1.128524 -0.473086 -0.320019 -0.733032 4.796121 -1.615952 0.702659 1.435742 -0.589340 0.163345 0.000000 0.000000 0.000000 0.550518 -0.626676 -0.015088 -1.052103 1.938379 1.137433 0.000000 0.000000 0.000000 1.056365 -0.459807 -0.079688 0.006403 1.898238 4.788949 -53.890456 -3.215644 -52.033344 3.339695 -79.312751 3.346365 0.000000 0.000000 0.000000 0.970701 -0.313449 -0.035872 -1.053842 -12.526733 10.406363 -57.842072 66.234257 72.326239 -11.000953 86.807326 10.888787 0.000000 0.000000 0.000000 
-1.521401 89.965538 2.766594 0.000000 0.000000 0.000000 1.389743 -28.120828 1.138059 -31.007823 22.265230 14.819438 33.026714 8.098446 11.450274 -1.657611 4.149631 -15.991131 0.000000 0.000000 0.000000 0.734430 -26.868246 0.594405 -20.648692 -16.964399 -10.042897 32.581239 -0.813976 -7.823292 -13.815957 -2.604807 14.053177 0.000000 0.000000 0.000000 1.029055 -27.437187 1.163843 -0.471466 -0.320407 -0.729263 4.770093 -1.643060 0.705905 1.428054 -0.598104 0.168062 0.000000 0.000000 0.000000 0.537582 -0.632491 -0.010952 -1.055786 1.939851 1.129840 0.000000 0.000000 0.000000 1.054329 -0.464801 -0.073436 0.007770 1.921204 4.706103 -53.890643 -3.326439 -51.986390 3.301900 -79.211247 3.303783 0.000000 0.000000 0.000000 0.960585 -0.318988 -0.030624 -1.051915 -12.526826 10.405158 -57.899261 66.309280 72.310632 -10.877463 86.808187 10.779905 0.000000 0.000000 0.000000 
-1.526947 89.960526 2.774361 0.000000 0.000000 0.000000 1.411834 -28.114341 1.177931 -31.030526 22.285244 14.811830 33.013344 8.079473 11.426558 -1.629038 4.113972 -15.965762 0.000000 0.000000 0.000000 0.747233 -26.864645 0.629727 -20.685305 -17.111236 -10.069567 32.585173 -0.713815 -7.918827 -13.863148 -2.560777 13.986954 0.000000 0.000000 0.000000 1.042514 -27.446222 1.195516 -0.464576 -0.319266 -0.728757 4.746598 -1.672561 0.708266 1.419359 -0.607368 0.174677 0.000000 0.000000 0.000000 0.525737 -0.639590 -0.006260 -1.057094 1.940017 1.122569 0.000000 0.000000 0.000000 1.053989 -0.471199 -0.066596 0.013272 1.924566 4.622985 -53.915136 -3.432740 -51.928733 3.271570 -79.099451 3.264140 0.000000 0.000000 0.000000 0.954573 -0.324747 -0.023712 -1.050899 -12.507469 10.384449 -57.930611 66.345275 72.295428 -10.741035 86.820174 10.662023 0.000000 0.000000 0.000000 
-1.529312 89.953369 2.784748 0.000000 0.000000 0.000000 1.428360 -28.133925 1.214384 -31.068809 22.311911 14.820949 33.031591 8.064100 11.400019 -1.599913 4.069408 -15.949284 0.000000 0.000000 0.000000 0.753941 -26.885592 0.660901 -20.722065 -17.248396 -10.094293 32.596678 -0.612724 -8.011288 -13.921447 -2.513545 13.919768 0.000000 0.000000 0.000000 1.050870 -27.477790 1.226801 -0.454715 -0.318901 -0.732690 4.723746 -1.704775 0.712442 1.408086 -0.618756 0.183240 0.000000 0.000000 0.000000 0.515413 -0.649666 -0.000848 -1.053310 1.939612 1.114247 0.000000 0.000000 0.000000 1.051734 -0.480317 -0.059319 0.021692 1.913894 4.543957 -53.976854 -3.531100 -51.864208 3.244711 -78.960689 3.225939 0.000000 0.000000 0.000000 0.950931 -0.332336 -0.015475 -1.051763 -12.464466 10.329449 -57.976483 66.337495 72.330529 -10.486348 86.808371 10.425970 0.000000 0.000000 0.000000 
-1.529755 89.944939 2.794979 0.000000 0.000000 0.000000 1.439044 -28.190718 1.249082 -31.101768 22.337813 14.834997 33.061059 8.057781 11.381535 -1.584657 4.029487 -15.941202 0.000000 0.000000 0.000000 0.753873 -26.943047 0.690974 -20.763440 -17.358839 -10.120618 32.619877 -0.512606 -8.095049 -13.970014 -2.468299 13.860387 0.000000 0.000000 0.000000 1.055173 -27.539036 1.261578 -0.447279 -0.313863 -0.736083 4.700260 -1.740551 0.720919 1.394023 -0.633889 0.194411 0.000000 0.000000 0.000000 0.505640 -0.664311 0.006674 -1.042168 1.939639 1.103398 0.000000 0.000000 0.000000 1.045147 -0.493741 -0.050081 0.031587 1.897712 4.471050 -54.082155 -3.617520 -51.794663 3.215177 -78.785973 3.184679 0.000000 0.000000 0.000000 0.947725 -0.344266 -0.005493 -1.054091 -12.395974 10.228177 -58.044129 66.297928 72.420373 -10.087836 86.755628 10.042767 0.000000 0.000000 0.000000 
